<svg width="1600" height="1200.0000000000002" xmlns="http://www.w3.org/2000/svg">
 <!-- Created with Method Draw - http://github.com/duopixel/Method-Draw/ -->
 <g>
  <title>background</title>
  <rect fill="#fff" id="canvas_background" height="1202" width="1602" y="-1" x="-1"/>
  <g display="none" overflow="visible" y="0" x="0" height="100%" width="100%" id="canvasGrid">
   <rect fill="url(#gridpattern)" stroke-width="0" y="0" x="0" height="100%" width="100%"/>
  </g>
 </g>
 <g>
  <title>Layer 1</title>
  <g id="A-1">
   <rect stroke="#ffff00" id="svg_12" height="376.844022" width="280.000008" y="44.155963" x="76" stroke-width="5" fill="#ffffff"/>
   <rect stroke="#ffff00" id="svg_13" height="376.844022" width="280.000008" y="44" x="364" stroke-width="5" fill="#ffffff"/>
   <rect stroke="#ffff00" id="svg_15" height="375.999967" width="133.636365" y="44.000006" x="654" stroke-width="5" fill="#ffffff"/>
   <line stroke-linecap="null" stroke-linejoin="null" id="svg_20" y2="325" x2="787" y1="331" x1="74" fill-opacity="null" stroke-opacity="null" stroke-width="5" stroke="#ffff00" fill="none"/>
   <line stroke-linecap="null" stroke-linejoin="null" id="svg_21" y2="235" x2="785" y1="239" x1="79" fill-opacity="null" stroke-opacity="null" stroke-width="5" stroke="#ffff00" fill="none"/>
   <line stroke-linecap="null" stroke-linejoin="null" id="svg_23" y2="133" x2="788" y1="136" x1="70" fill-opacity="null" stroke-opacity="null" stroke-width="5" stroke="#ffff00" fill="none"/>
   <g id="A-1.4">
    <rect id="A-1.4E" height="46" width="115" y="52" x="664" fill-opacity="null" stroke-width="5" stroke="#ff0000" fill="none"/>
    <rect id="A-1.4A" height="46" width="115" y="56" x="88" fill-opacity="null" stroke-width="5" stroke="#ff0000" fill="none"/>
    <rect id="A-1.4B" height="46" width="115" y="56" x="213" fill-opacity="null" stroke-width="5" stroke="#7f00ff" fill="none"/>
    <rect stroke="#ff0000" id="A-1.4C" height="46" width="115" y="52" x="375" fill-opacity="null" stroke-width="5" fill="none"/>
    <rect stroke="#7f00ff" id="A-1.4D" height="46" width="115" y="52" x="498" fill-opacity="null" stroke-width="5" fill="none"/>
   </g>
   <g id="A-1.3">
    <rect id="A-1.3E" height="46" width="115" y="142" x="662" fill-opacity="null" stroke-width="5" stroke="#ff0000" fill="none"/>
    <rect id="A-1.3A" height="46" width="115" y="146" x="86" fill-opacity="null" stroke-width="5" stroke="#ff0000" fill="none"/>
    <rect id="A-1.3B" height="46" width="115" y="146" x="211" fill-opacity="null" stroke-width="5" stroke="#7f00ff" fill="none"/>
    <rect stroke="#ff0000" id="A-1.3C" height="46" width="115" y="142" x="373" fill-opacity="null" stroke-width="5" fill="none"/>
    <rect stroke="#7f00ff" id="A-1.3D" height="46" width="115" y="142" x="496" fill-opacity="null" stroke-width="5" fill="none"/>
   </g>
   <g id="A-1.1">
    <rect id="A-1.1E" height="46" width="115" y="336" x="662" fill-opacity="null" stroke-width="5" stroke="#ff0000" fill="none"/>
    <rect id="A-1.1A" height="46" width="115" y="340" x="86" fill-opacity="null" stroke-width="5" stroke="#ff0000" fill="none"/>
    <rect id="A-1.1B" height="46" width="115" y="340" x="211" fill-opacity="null" stroke-width="5" stroke="#7f00ff" fill="none"/>
    <rect stroke="#ff0000" id="A-1.1C" height="46" width="115" y="336" x="373" fill-opacity="null" stroke-width="5" fill="none"/>
    <rect stroke="#7f00ff" id="A-1.1D" height="46" width="115" y="336" x="496" fill-opacity="null" stroke-width="5" fill="none"/>
   </g>
   <g id="A-1.2">
    <rect id="A-1.2E" height="46" width="115" y="246" x="662" fill-opacity="null" stroke-width="5" stroke="#ff0000" fill="none"/>
    <rect id="A-1.2A" height="46" width="115" y="250" x="86" fill-opacity="null" stroke-width="5" stroke="#ff0000" fill="none"/>
    <rect id="A-1.2B" height="46" width="115" y="250" x="211" fill-opacity="null" stroke-width="5" stroke="#7f00ff" fill="none"/>
    <rect stroke="#ff0000" id="A-1.2C" height="46" width="115" y="246" x="373" fill-opacity="null" stroke-width="5" fill="none"/>
    <rect stroke="#7f00ff" id="A-1.2D" height="46" width="115" y="246" x="496" fill-opacity="null" stroke-width="5" fill="none"/>
   </g>
  </g>
  <g id="A-2">
   <rect stroke="#ffff00" id="svg_78" height="376.844022" width="280.000008" y="533.155963" x="79" stroke-width="5" fill="#ffffff"/>
   <rect stroke="#ffff00" id="svg_79" height="376.844022" width="280.000008" y="533" x="367" stroke-width="5" fill="#ffffff"/>
   <rect stroke="#ffff00" id="svg_80" height="375.999967" width="133.636365" y="533.000006" x="657" stroke-width="5" fill="#ffffff"/>
   <line stroke-linecap="null" stroke-linejoin="null" id="svg_81" y2="814" x2="790" y1="820" x1="77" fill-opacity="null" stroke-opacity="null" stroke-width="5" stroke="#ffff00" fill="none"/>
   <line stroke-linecap="null" stroke-linejoin="null" id="svg_82" y2="724" x2="788" y1="728" x1="82" fill-opacity="null" stroke-opacity="null" stroke-width="5" stroke="#ffff00" fill="none"/>
   <line stroke-linecap="null" stroke-linejoin="null" id="svg_83" y2="622" x2="791" y1="625" x1="73" fill-opacity="null" stroke-opacity="null" stroke-width="5" stroke="#ffff00" fill="none"/>
   <g id="A-2.4">
    <rect id="A-2.4E" height="46" width="115" y="541" x="667" fill-opacity="null" stroke-width="5" stroke="#ff0000" fill="none"/>
    <rect id="A-2.4A" height="46" width="115" y="545" x="91" fill-opacity="null" stroke-width="5" stroke="#ff0000" fill="none"/>
    <rect id="A-2.4B" height="46" width="115" y="545" x="216" fill-opacity="null" stroke-width="5" stroke="#7f00ff" fill="none"/>
    <rect stroke="#ff0000" id="A-2.4C" height="46" width="115" y="541" x="378" fill-opacity="null" stroke-width="5" fill="none"/>
    <rect stroke="#7f00ff" id="A-2.4D" height="46" width="115" y="541" x="501" fill-opacity="null" stroke-width="5" fill="none"/>
   </g>
   <g id="A-2.3">
    <rect id="A-2.3E" height="46" width="115" y="631" x="665" fill-opacity="null" stroke-width="5" stroke="#ff0000" fill="none"/>
    <rect id="A-2.3A" height="46" width="115" y="635" x="89" fill-opacity="null" stroke-width="5" stroke="#ff0000" fill="none"/>
    <rect id="A-2.3B" height="46" width="115" y="635" x="214" fill-opacity="null" stroke-width="5" stroke="#7f00ff" fill="none"/>
    <rect stroke="#ff0000" id="A-2.3C" height="46" width="115" y="631" x="376" fill-opacity="null" stroke-width="5" fill="none"/>
    <rect stroke="#7f00ff" id="A-2.3D" height="46" width="115" y="631" x="499" fill-opacity="null" stroke-width="5" fill="none"/>
   </g>
   <g id="A-2.1">
    <rect id="A-2.1E" height="46" width="115" y="825" x="665" fill-opacity="null" stroke-width="5" stroke="#ff0000" fill="none"/>
    <rect id="A-2.1A" height="46" width="115" y="829" x="89" fill-opacity="null" stroke-width="5" stroke="#ff0000" fill="none"/>
    <rect id="A-2.1B" height="46" width="115" y="829" x="214" fill-opacity="null" stroke-width="5" stroke="#7f00ff" fill="none"/>
    <rect stroke="#ff0000" id="A-2.1C" height="46" width="115" y="825" x="376" fill-opacity="null" stroke-width="5" fill="none"/>
    <rect stroke="#7f00ff" id="A-2.1D" height="46" width="115" y="825" x="499" fill-opacity="null" stroke-width="5" fill="none"/>
   </g>
   <g id="A-2.2">
    <rect id="A-2.2E" height="46" width="115" y="735" x="665" fill-opacity="null" stroke-width="5" stroke="#ff0000" fill="none"/>
    <rect id="A-2.2A" height="46" width="115" y="739" x="89" fill-opacity="null" stroke-width="5" stroke="#ff0000" fill="none"/>
    <rect id="A-2.2B" height="46" width="115" y="739" x="214" fill-opacity="null" stroke-width="5" stroke="#7f00ff" fill="none"/>
    <rect stroke="#ff0000" id="A-2.2C" height="46" width="115" y="735" x="376" fill-opacity="null" stroke-width="5" fill="none"/>
    <rect stroke="#7f00ff" id="A-2.2D" height="46" width="115" y="735" x="499" fill-opacity="null" stroke-width="5" fill="none"/>
   </g>
  </g>
  <g id="OV-A1">
   <rect stroke="#7f00ff" id="OV-A1-AB" height="283" width="271.999989" y="135" x="795.33333" fill-opacity="null" stroke-width="5" fill="#ffffff"/>
   <rect stroke="#7f00ff" id="OV-A1-CD" height="283" width="271.999989" y="136" x="1082.33333" fill-opacity="null" stroke-width="5" fill="#ffffff"/>
   <rect stroke="#7f00ff" id="OV-A1-E" height="283" width="197.999986" y="135" x="1368.333342" fill-opacity="null" stroke-width="5" fill="#ffffff"/>
   <rect id="OV-A1-AB.2" height="44" width="124" y="392.666667" x="863" fill-opacity="null" stroke-width="5" stroke="#1d1b1e" fill="#ffffff"/>
   <rect id="OV-A1-E.2" height="44" width="124" y="395.666667" x="1409" fill-opacity="null" stroke-width="5" stroke="#1d1b1e" fill="#ffffff"/>
   <rect id="OV-A1-CD.2" height="44" width="124" y="392.666667" x="1157" fill-opacity="null" stroke-width="5" stroke="#1d1b1e" fill="#ffffff"/>
   <rect id="OV-A1-E.1" height="44" width="124" y="143.666667" x="1409" fill-opacity="null" stroke-width="5" stroke="#1d1b1e" fill="#ffffff"/>
   <rect id="OV-A1-CD.1" height="44" width="124" y="144.666667" x="1154" fill-opacity="null" stroke-width="5" stroke="#1d1b1e" fill="#ffffff"/>
   <rect id="OV-A1-AB.1" height="44" width="124" y="142.666667" x="866" fill-opacity="null" stroke-width="5" stroke="#1d1b1e" fill="#ffffff"/>
  </g>
  <g transform="translate(-172,136) " id="OV-A2">
   <rect stroke="#7f00ff" id="OV-A2-AB" height="283" width="271.999989" y="491" x="975.33333" fill-opacity="null" stroke-width="5" fill="#ffffff"/>
   <rect stroke="#7f00ff" id="OV-A2-CD" height="283" width="271.999989" y="492" x="1262.33333" fill-opacity="null" stroke-width="5" fill="#ffffff"/>
   <rect stroke="#7f00ff" id="OV-A2-E" height="283" width="197.999986" y="491" x="1548.333342" fill-opacity="null" stroke-width="5" fill="#ffffff"/>
   <rect id="OV-A2-AB.2" height="44" width="124" y="748.666667" x="1043" fill-opacity="null" stroke-width="5" stroke="#1d1b1e" fill="#ffffff"/>
   <rect id="OV-A2-E.2" height="44" width="124" y="751.666667" x="1589" fill-opacity="null" stroke-width="5" stroke="#1d1b1e" fill="#ffffff"/>
   <rect id="OV-A2-CD.2" height="44" width="124" y="748.666667" x="1337" fill-opacity="null" stroke-width="5" stroke="#1d1b1e" fill="#ffffff"/>
   <rect id="OV-A2-E.1" height="44" width="124" y="499.666667" x="1589" fill-opacity="null" stroke-width="5" stroke="#1d1b1e" fill="#ffffff"/>
   <rect id="OV-A2-CD.1" height="44" width="124" y="500.666667" x="1334" fill-opacity="null" stroke-width="5" stroke="#1d1b1e" fill="#ffffff"/>
   <rect id="OV-A2-AB.1" height="44" width="124" y="498.666667" x="1046" fill-opacity="null" stroke-width="5" stroke="#1d1b1e" fill="#ffffff"/>
  </g>
 </g>
</svg>